<svg xmlns="http://www.w3.org/2000/svg" xmlns:xlink="http://www.w3.org/1999/xlink" width="151" height="151" version="1.1" viewBox="0 0 151 151"><title>Icon</title><desc>Created with Sketch.</desc><defs><linearGradient id="linearGradient-1" x1="50%" x2="50%" y1="4.428%" y2="96.231%"><stop offset="0%" stop-color="#57C5FA"/><stop offset="100%" stop-color="#0C6DD1"/></linearGradient></defs><g id="New-website" fill="none" fill-rule="evenodd" stroke="none" stroke-width="1"><g id="Main" transform="translate(-644.000000, -76.000000)"><g id="Header"><g id="Icon" transform="translate(644.000000, 76.000000)"><rect id="Rectangle" width="150.528" height="150.528" x="0" y="0" fill="url(#linearGradient-1)" rx="27.048"/><g id="Group-2" stroke-width="1" transform="translate(26.460000, 30.870000)"><g id="Group" fill-rule="nonzero" stroke="#FFF" stroke-width="2.94" transform="translate(48.216000, 0.000000)"><path id="Path" d="M0.844646035,87.7355558 L0.844646035,-2.84217094e-14"/><path id="Path-2" d="M1.09285677,88.1947457 L22.4615444,5.586"/><path id="Path-3" d="M0.800645041,88.4316741 L42.4425085,19.0217991"/><path id="Path-4" d="M0.906698718,88.5038809 L49.1543523,39.69"/><path id="Path-5" d="M0.294,89.67 L40.3834876,65.856"/></g><g id="Group" fill-rule="nonzero" stroke="#FFF" stroke-width="2.94" transform="translate(25.137000, 44.835000) scale(-1, 1) translate(-25.137000, -44.835000)"><path id="Path" d="M1.72664603,87.7355558 L1.72664603,-2.84217094e-14"/><path id="Path-2" d="M1.97485677,88.1947457 L23.3435444,5.586"/><path id="Path-3" d="M1.68264504,88.4316741 L43.3245085,19.0217991"/><path id="Path-4" d="M1.78869872,88.5038809 L50.0363523,39.69"/><path id="Path-5" d="M0.294,89.67 L41.2654876,65.856"/></g><rect id="Rectangle" width="31.458" height="2.646" x="33.222" y="84.966" fill="#FFF" fill-rule="nonzero"/></g></g></g></g></g></svg>