<svg xmlns="http://www.w3.org/2000/svg" width="160" height="160" fill="none" viewBox="0 0 160 160"><circle cx="80" cy="80" r="80" fill="url(#paint0_linear)"/><path stroke="#fff" stroke-width="4" d="M39.6667 115.61C39.6667 115.61 56.5 129 80.5 129C104.5 129 121.333 115.61 121.333 115.61"/><path stroke="#fff" stroke-width="4" d="M35 92.8781C35 92.8781 64.1667 128 80.5 128C96.8333 128 126 92.8781 126 92.8781"/><path stroke="#fff" stroke-width="4" d="M35 64.7805C35 64.7805 64.1667 128 80.5 128C96.8333 128 126 64.7805 126 64.7805"/><path stroke="#fff" stroke-width="4" d="M53.6667 40.1951C53.6667 40.1951 72.0002 128 80.5001 128C89 128 107.333 40.1951 107.333 40.1951"/><line x1="80.833" x2="80.833" y1="128" y2="32" stroke="#fff" stroke-width="4"/><defs><linearGradient id="paint0_linear" x1="80" x2="80" y1="0" y2="160" gradientUnits="userSpaceOnUse"><stop stop-color="#6236FF"/><stop offset="1" stop-color="#3000DA"/></linearGradient></defs></svg>